HIERARCHY
ROOT Hips
{
	OFFSET 0.00 0.00 0.00
	CHANNELS 6 Xposition Yposition Zposition Zrotation Xrotation Yrotation
		JOINT Spine
		{
			OFFSET 0.00 10.00 0.00
			CHANNELS 3 Zrotation Xrotation Yrotation
			JOINT Spine1
			{
				OFFSET 0.00 10.00 0.00
				CHANNELS 3 Zrotation Xrotation Yrotation
				JOINT Spine2
				{
					OFFSET 0.00 10.00 0.00
					CHANNELS 3 Zrotation Xrotation Yrotation
					JOINT Neck
					{
						OFFSET 0.00 10.00 0.00
						CHANNELS 3 Zrotation Xrotation Yrotation
						JOINT Head
						{
							OFFSET 0.00 10.00 0.00
							CHANNELS 3 Zrotation Xrotation Yrotation
						End Site
						{
							OFFSET 0.00 0.00 0.00
						}
					}
					End Site
					{
						OFFSET 0.00 0.00 0.00
					}
				}
					JOINT LeftArm
					{
						OFFSET 10.00 0.00 0.00
						CHANNELS 3 Zrotation Xrotation Yrotation
						JOINT LeftForeArm
						{
							OFFSET 20.00 0.00 0.00
							CHANNELS 3 Zrotation Xrotation Yrotation
							JOINT LeftHand
							{
								OFFSET 20.00 0.00 0.00
								CHANNELS 3 Zrotation Xrotation Yrotation
							End Site
							{
								OFFSET 0.00 0.00 0.00
							}
						}
						End Site
						{
							OFFSET 0.00 0.00 0.00
						}
					}
					End Site
					{
						OFFSET 0.00 0.00 0.00
					}
				}
					JOINT RightArm
					{
						OFFSET -10.00 0.00 0.00
						CHANNELS 3 Zrotation Xrotation Yrotation
						JOINT RightForeArm
						{
							OFFSET -20.00 0.00 0.00
							CHANNELS 3 Zrotation Xrotation Yrotation
							JOINT RightHand
							{
								OFFSET -20.00 0.00 0.00
								CHANNELS 3 Zrotation Xrotation Yrotation
							End Site
							{
								OFFSET 0.00 0.00 0.00
							}
						}
						End Site
						{
							OFFSET 0.00 0.00 0.00
						}
					}
					End Site
					{
						OFFSET 0.00 0.00 0.00
					}
				}
				End Site
				{
					OFFSET 0.00 0.00 0.00
				}
			}
			End Site
			{
				OFFSET 0.00 0.00 0.00
			}
		}
		End Site
		{
			OFFSET 0.00 0.00 0.00
		}
	}
		JOINT LeftUpLeg
		{
			OFFSET 5.00 -10.00 0.00
			CHANNELS 3 Zrotation Xrotation Yrotation
			JOINT LeftLeg
			{
				OFFSET 0.00 -20.00 0.00
				CHANNELS 3 Zrotation Xrotation Yrotation
				JOINT LeftFoot
				{
					OFFSET 0.00 -20.00 0.00
					CHANNELS 3 Zrotation Xrotation Yrotation
					JOINT LeftToeBase
					{
						OFFSET 0.00 -5.00 5.00
						CHANNELS 3 Zrotation Xrotation Yrotation
					End Site
					{
						OFFSET 0.00 0.00 0.00
					}
				}
				End Site
				{
					OFFSET 0.00 0.00 0.00
				}
			}
			End Site
			{
				OFFSET 0.00 0.00 0.00
			}
		}
		End Site
		{
			OFFSET 0.00 0.00 0.00
		}
	}
		JOINT RightUpLeg
		{
			OFFSET -5.00 -10.00 0.00
			CHANNELS 3 Zrotation Xrotation Yrotation
			JOINT RightLeg
			{
				OFFSET 0.00 -20.00 0.00
				CHANNELS 3 Zrotation Xrotation Yrotation
				JOINT RightFoot
				{
					OFFSET 0.00 -20.00 0.00
					CHANNELS 3 Zrotation Xrotation Yrotation
					JOINT RightToeBase
					{
						OFFSET 0.00 -5.00 5.00
						CHANNELS 3 Zrotation Xrotation Yrotation
					End Site
					{
						OFFSET 0.00 0.00 0.00
					}
				}
				End Site
				{
					OFFSET 0.00 0.00 0.00
				}
			}
			End Site
			{
				OFFSET 0.00 0.00 0.00
			}
		}
		End Site
		{
			OFFSET 0.00 0.00 0.00
		}
	}
	End Site
	{
		OFFSET 0.00 0.00 0.00
	}
}
MOTION
Frames: 18
Frame Time: 0.034483
10.2488 -1.5943 -2.1334 170.3305 96.9884 -10.9200 -12.9288 10.8137 -1.2289 -12.9288 10.8137 -1.2289 73.1697 -17.9500 -13.3725 39.3357 32.3487 11.8370 -60.3146 -54.0174 32.9937 -89.4775 -14.6528 -14.7855 -92.4599 -28.0482 -26.9129 -144.0240 -116.5659 -55.4317 79.2399 -9.7214 11.7299 25.1659 -10.8930 46.2599 -74.5017 56.5389 70.5331 25.0050 -68.4115 -17.1430 -65.3211 39.7917 -26.1222 -70.7525 52.7417 -38.7858 -179.8167 -179.8379 -82.9853 -65.2010 -49.7629 33.0420 47.8869 28.9968 13.1006 86.7601 -26.8863 -25.4569 -41.3897 45.7023 83.7479
10.2545 -1.6191 -2.1280 170.1937 95.9950 -10.8839 -12.9775 13.3376 -1.5238 -12.9775 13.3376 -1.5238 73.0619 -17.5833 -13.0718 39.8672 31.1229 11.5338 -62.0213 -52.2320 32.8395 -90.2012 -15.8807 -15.8258 -91.6676 -29.3073 -28.5012 -149.1799 -127.7267 -58.6485 81.3405 -10.7534 12.5022 25.8355 -11.7753 48.4189 -69.2066 51.2738 69.6439 24.8170 -68.3998 -17.0083 -64.3861 40.4531 -26.1194 -70.4690 53.1035 -38.8817 -173.4431 -174.3657 -81.3279 -64.1720 -51.7309 33.8151 46.2120 28.7609 12.4858 83.8142 -27.6959 -24.9500 -33.3181 36.3150 84.7554
10.2542 -1.6343 -2.1250 170.1085 95.4098 -10.8668 -13.1762 13.5964 -1.5776 -13.1762 13.5964 -1.5776 73.4561 -17.0352 -12.7522 39.4328 31.4393 11.5196 -59.6425 -54.5370 32.9196 -90.7620 -16.2167 -16.0052 -90.6137 -31.0086 -30.6939 -153.2457 -135.4290 -60.2501 82.5068 -10.8670 12.3788 25.5802 -11.6979 48.5747 -66.3708 48.6006 69.2412 24.9484 -68.2410 -17.0497 -64.1755 40.3866 -25.9717 -70.4090 53.0453 -38.7961 -170.7974 -172.1595 -80.8279 -63.6640 -53.0109 34.4043 45.3100 28.6450 12.1655 82.7839 -28.1218 -24.8962 -30.6702 33.3136 85.0142
10.2512 -1.6474 -2.1152 170.0331 94.6960 -10.8143 -13.2819 13.7000 -1.6026 -13.2819 13.7000 -1.6026 73.4422 -16.9506 -12.6852 39.2997 31.4410 11.4784 -58.8982 -55.3089 32.9616 -91.0468 -16.4688 -16.1746 -89.8056 -31.7271 -31.8294 -152.2567 -134.0119 -60.3942 82.8306 -10.7542 12.1815 25.0547 -11.3287 48.1105 -65.6330 47.9222 69.1462 24.8831 -68.2784 -17.0161 -63.8380 40.4626 -25.8588 -69.9572 53.2629 -38.6658 -171.2744 -172.6360 -80.2939 -64.7659 -52.4331 34.6865 45.1689 27.9634 11.8255 82.4715 -28.3814 -24.9947 -32.1932 34.8015 85.2771
10.2510 -1.6556 -2.1149 169.9910 94.4350 -10.8108 -13.2676 13.6277 -1.5923 -13.2676 13.6277 -1.5923 73.3412 -16.8558 -12.5909 39.4432 31.6759 11.6135 -58.9841 -55.0582 32.8502 -90.7641 -15.6571 -15.4522 -87.6822 -29.6982 -30.8671 -148.9129 -129.2220 -60.7455 82.6467 -10.5037 11.9365 25.4325 -11.3413 47.5017 -66.5591 48.9340 69.4639 24.7705 -68.4622 -16.9955 -63.8349 40.0928 -25.6089 -69.7360 53.2470 -38.5064 -173.0049 -174.1246 -80.0355 -64.9514 -52.3770 34.7629 45.1046 27.6520 11.6711 81.7474 -29.2492 -25.4505 -27.5379 29.8927 85.1020
10.2507 -1.6600 -2.0795 169.9654 93.2915 -10.6249 -13.4597 14.1145 -1.6739 -13.4597 14.1145 -1.6739 72.9971 -17.6470 -13.1042 39.7133 31.1760 11.5063 -59.8622 -54.1979 32.8311 -89.5564 -16.0794 -16.2027 -85.6621 -27.4659 -29.5369 -145.6879 -123.6233 -59.8862 82.3272 -10.8435 12.3910 25.3302 -11.4118 47.9430 -66.9261 49.3988 69.6652 24.9503 -68.7364 -17.2078 -63.7351 39.5804 -25.2180 -70.2790 52.5769 -38.3434 -170.6348 -172.1187 -80.1278 -67.2071 -50.4131 34.7370 45.4910 26.4831 11.2684 80.5800 -30.4660 -25.9987 -27.2606 29.0248 86.2611
10.2644 -1.6790 -2.0927 169.8764 93.0843 -10.6806 -14.3701 13.9837 -1.7715 -14.3701 13.9837 -1.7715 73.1925 -17.3212 -12.9061 39.8775 31.2074 11.5698 -59.4287 -54.4994 32.7601 -88.3992 -13.7397 -14.1251 -80.0556 -15.8720 -18.8469 -113.0748 -77.7171 -56.0732 81.7475 -10.8147 12.4840 26.4567 -11.2145 45.3364 -66.6470 48.4066 68.7182 25.1712 -69.0929 -17.4772 -63.8361 38.5400 -24.5703 -71.2415 51.1215 -37.8306 -176.6767 -177.1326 -81.5725 -67.2198 -50.3313 34.6844 45.5691 26.4508 11.2756 80.8970 -30.2078 -25.9155 -27.5132 29.4117 86.0183
10.2724 -1.7328 -2.0936 169.6013 91.4658 -10.6667 -14.9490 12.3196 -1.6225 -14.9490 12.3196 -1.6225 73.4025 -15.6968 -11.7331 39.8870 31.9622 11.8654 -59.7362 -53.9764 32.6046 -86.1896 -3.9626 -4.2351 -78.6956 -0.2928 -0.3571 -96.0090 -42.3241 -38.4272 80.0505 -7.5377 8.9696 29.6988 -10.3275 37.6426 -64.1120 45.0579 67.0399 23.7132 -70.4159 -16.8532 -62.3918 39.2897 -24.3939 -70.1759 51.9282 -37.7702 169.6534 171.0636 -81.5954 -68.3321 -48.8811 34.2865 45.5818 26.4219 11.2664 80.9752 -30.2334 -25.9724 -24.1341 25.9939 85.6122
10.2768 -1.7828 -2.0841 169.3437 89.7008 -10.6011 -15.9676 12.8841 -1.8145 -15.9676 12.8841 -1.8145 72.9635 -15.8169 -11.7298 40.5520 31.7438 11.9928 -61.7106 -51.6940 32.2823 -86.9307 -3.8584 -4.0706 -74.7109 -7.2274 -9.4593 -80.5306 -43.2992 -50.2173 78.5616 -7.4873 9.1475 29.5424 -10.4684 38.3178 -64.3179 47.9976 70.6042 22.0798 -71.6801 -16.0426 -60.3017 40.6527 -24.2866 -68.3577 53.1852 -37.5497 160.8747 163.5773 -81.1649 -67.8864 -49.2427 34.2856 45.1636 26.5438 11.2051 80.4096 -30.8185 -26.2271 -20.5980 22.3803 85.1378
10.2843 -1.9257 -2.0910 168.5889 85.8057 -10.6096 -18.1532 13.5809 -2.1796 -18.1532 13.5809 -2.1796 72.0485 -15.7561 -11.4917 42.1051 30.9187 12.1529 -67.0286 -45.7739 31.2383 -85.1629 -3.0951 -3.3680 -72.2460 -0.7803 -1.0691 -71.4040 -31.8479 -43.3083 75.9139 -6.7793 8.6840 29.2991 -10.6530 39.2591 -64.2947 48.1115 70.7732 20.1926 -73.5004 -15.1478 -58.4193 42.1220 -24.3009 -66.6145 55.2171 -37.9281 161.6230 164.1838 -81.3067 -66.5246 -50.6312 34.4760 44.6955 26.7500 11.1658 80.2983 -30.7620 -26.1286 -19.2975 20.9905 85.0870
10.2866 -2.1817 -2.1277 167.2606 80.2791 -10.7554 -19.8851 13.7207 -2.4164 -19.8851 13.7207 -2.4164 71.1124 -15.0241 -10.7689 41.4745 32.6234 12.6449 -64.7269 -46.7050 30.6048 -82.7787 0.3183 0.3611 -70.0207 3.5991 5.1364 -62.0134 -24.4790 -39.6926 73.6884 -5.8588 7.8138 28.8649 -9.9081 37.2277 -68.2330 48.9298 67.7703 18.3085 -74.9451 -14.0840 -56.1285 44.5483 -24.6376 -64.5371 57.4798 -38.1975 165.1010 166.9561 -82.3283 -66.5050 -50.9311 34.6835 44.2200 26.4501 10.9076 80.0680 -30.8771 -26.1246 -13.8778 15.3561 84.1473
10.2813 -2.4570 -2.1411 165.8098 74.2519 -10.7656 -21.7162 13.8228 -2.6638 -21.7162 13.8228 -2.6638 68.9640 -14.8485 -10.2285 40.2196 32.8450 12.3188 -63.6295 -48.4781 31.2121 -82.2769 3.5106 4.0184 -69.2174 4.9528 7.1722 -53.5166 -18.3293 -35.4852 71.5501 -5.2171 7.2357 26.1350 -9.2881 38.5775 -73.9889 51.2564 64.9734 17.7581 -75.5802 -13.8137 -56.1264 44.9708 -24.8879 -64.3269 58.6883 -38.9399 177.0101 177.3535 -83.0242 -64.7428 -53.8419 35.6864 42.7968 25.9064 10.3005 78.8182 -31.5289 -26.1188 -10.0976 11.6629 81.7223
10.2695 -2.7842 -2.1846 164.1184 68.9345 -10.9388 -22.8232 14.5839 -2.9591 -22.8232 14.5839 -2.9591 67.1635 -14.8156 -9.8674 39.3135 33.9451 12.4436 -64.5846 -47.7624 31.2643 -80.8817 2.9975 3.5166 -69.8105 3.5080 5.0259 -54.8742 -18.9830 -35.7004 69.4711 -3.9152 5.6444 24.8531 -7.4412 32.8839 -74.0642 48.9395 62.1983 16.3963 -76.7647 -13.0204 -55.7110 45.6201 -25.0618 -63.6103 60.2065 -39.5506 -161.6252 -163.4303 -83.9936 -64.4090 -55.2246 36.4685 41.7710 24.7945 9.5889 77.6527 -32.4257 -26.3410 -8.3019 9.8173 80.3990
10.2291 -3.0734 -2.2143 162.5912 64.6885 -11.0752 -24.3181 16.0123 -3.4716 -24.3181 16.0123 -3.4716 65.2078 -15.2072 -9.7607 38.5487 35.6481 12.8303 -64.8398 -47.8395 31.4653 -78.2134 4.3809 5.3880 -69.8879 4.5112 6.4527 -57.2028 -15.9124 -28.7536 66.6896 -2.9020 4.4090 22.3465 -6.9775 34.3061 -76.2371 49.6802 61.0798 16.2691 -77.2099 -13.0214 -57.9088 43.7574 -25.0523 -67.0964 57.8938 -40.2817 -138.4507 -143.4822 -82.0260 -60.8229 -61.3859 38.4184 38.8162 23.8813 8.5220 74.4557 -32.7219 -25.1491 -14.5483 16.2437 83.6209
10.1745 -3.3494 -2.2282 161.1078 60.7302 -11.1347 -25.0678 17.5888 -3.9397 -25.0678 17.5888 -3.9397 63.6920 -15.8990 -9.9145 38.9555 35.1302 12.7761 -69.0466 -44.2757 31.2684 -75.2806 5.0167 6.5021 -72.2222 4.3531 5.9646 -60.6007 -18.9295 -31.8455 64.8855 -1.9406 3.0525 19.0570 -5.1880 30.2092 -81.5203 50.1234 56.9601 16.2679 -77.6580 -13.1242 -59.0415 43.3017 -25.3364 -68.4187 57.9694 -41.2730 -115.7582 -124.4859 -79.9454 -60.2299 -64.9238 40.5058 36.7560 22.8350 7.6770 70.6512 -32.5500 -23.3798 -14.7048 16.3283 83.9371
10.1082 -3.5789 -2.2303 159.8322 57.4730 -11.1387 -26.5551 15.4679 -3.6711 -26.5551 15.4679 -3.6711 62.4584 -16.2332 -9.8843 38.6175 34.9752 12.5984 -74.0231 -40.2466 30.8830 -74.0838 4.0216 5.3271 -73.7847 5.7496 7.6549 -65.4376 -20.9992 -32.1832 62.3129 -0.4038 0.6679 18.0241 -4.1356 25.6499 -84.0401 54.3080 59.3014 16.2933 -78.6193 -13.3701 -60.7104 41.8529 -25.2458 -70.4851 56.7269 -41.7577 -96.8229 -108.2641 -78.3389 -61.3030 -66.8546 42.7270 35.4378 22.0725 7.1316 66.4186 -33.1279 -22.0353 -18.4528 20.9037 82.7319
10.0613 -3.8254 -2.2302 158.5175 54.2491 -11.1007 -28.3197 15.5602 -3.9485 -28.3197 15.5602 -3.9485 60.8512 -16.1640 -9.5345 39.0503 34.8801 12.7132 -75.2930 -39.3964 30.8775 -74.8090 4.1394 5.4115 -74.4631 8.7235 11.4635 -62.0244 -18.9078 -30.9650 59.5782 -0.1430 0.2498 17.7589 -3.6690 23.1718 -87.1675 57.9004 60.3320 16.2284 -79.3027 -13.4779 -60.6913 41.7022 -25.1402 -70.9032 56.3692 -41.7672 -89.2322 -102.6085 -76.6433 -60.9497 -68.8515 43.9296 34.2025 21.6271 6.7263 63.3061 -34.0094 -21.3536 -15.2536 17.2482 82.8817
10.0129 -4.0206 -2.1827 157.4684 50.8789 -10.8258 -29.6212 14.0337 -3.7280 -29.6212 14.0337 -3.7280 59.3993 -17.4151 -9.9851 39.9441 35.5115 13.2754 -77.8309 -35.9437 29.3505 -75.5065 5.8189 7.5100 -75.9218 12.6994 16.2348 -66.4497 -20.7573 -31.2437 57.4109 0.7725 -1.4106 17.7768 -3.1360 19.8566 -91.8372 64.7587 63.1081 16.7724 -80.1761 -14.1471 -61.7167 39.4364 -24.1747 -74.9124 52.4453 -41.3481 -67.6530 -84.7791 -72.5674 -60.7306 -71.9349 46.0665 32.1986 20.8165 6.0694 59.0024 -35.9006 -20.7737 4.8862 -5.7093 81.1032
